<?xml version="1.0" encoding="utf-8"?>
<svg width="512px" height="512px" viewBox="0 0 512 512" version="1.1" xmlns:xlink="http://www.w3.org/1999/xlink" xmlns="http://www.w3.org/2000/svg">
  <defs>
    <path d="M0 0L512 0L512 512L0 512L0 0Z" id="path_1" />
    <path d="M37.999 0L474.001 0Q474.934 0 475.866 0.0457715Q476.797 0.0915429 477.726 0.182976Q478.654 0.274408 479.577 0.411282Q480.499 0.548155 481.414 0.73014Q482.329 0.912125 483.234 1.13878Q484.139 1.36544 485.032 1.63622Q485.924 1.90701 486.802 2.22127Q487.681 2.53553 488.543 2.8925Q489.404 3.24948 490.248 3.64831Q491.091 4.04714 491.914 4.48687Q492.736 4.9266 493.536 5.40617Q494.336 5.88574 495.112 6.40399Q495.888 6.92223 496.637 7.47792Q497.386 8.0336 498.107 8.62538Q498.828 9.21715 499.52 9.8436Q500.211 10.47 500.87 11.1296Q501.53 11.7893 502.156 12.4804Q502.783 13.1716 503.375 13.8927Q503.966 14.6138 504.522 15.363Q505.078 16.1123 505.596 16.8879Q506.114 17.6635 506.594 18.4636Q507.073 19.2637 507.513 20.0864Q507.953 20.9091 508.352 21.7523Q508.75 22.5956 509.107 23.4574Q509.464 24.3192 509.779 25.1975Q510.093 26.0758 510.364 26.9685Q510.634 27.8611 510.861 28.766Q511.088 29.6709 511.27 30.5858Q511.452 31.5007 511.589 32.4234Q511.726 33.3461 511.817 34.2744Q511.908 35.2028 511.954 36.1345Q512 37.0662 512 37.999L512 474.001Q512 474.934 511.954 475.866Q511.908 476.797 511.817 477.726Q511.726 478.654 511.589 479.577Q511.452 480.499 511.27 481.414Q511.088 482.329 510.861 483.234Q510.634 484.139 510.364 485.032Q510.093 485.924 509.779 486.802Q509.464 487.681 509.107 488.543Q508.75 489.404 508.352 490.248Q507.953 491.091 507.513 491.914Q507.073 492.736 506.594 493.536Q506.114 494.336 505.596 495.112Q505.078 495.888 504.522 496.637Q503.966 497.386 503.375 498.107Q502.783 498.828 502.156 499.52Q501.53 500.211 500.87 500.87Q500.211 501.53 499.52 502.156Q498.828 502.783 498.107 503.375Q497.386 503.966 496.637 504.522Q495.888 505.078 495.112 505.596Q494.336 506.114 493.536 506.594Q492.736 507.073 491.914 507.513Q491.091 507.953 490.248 508.352Q489.404 508.75 488.543 509.107Q487.681 509.464 486.802 509.779Q485.924 510.093 485.031 510.364Q484.139 510.634 483.234 510.861Q482.329 511.088 481.414 511.27Q480.499 511.452 479.577 511.589Q478.654 511.726 477.726 511.817Q476.797 511.908 475.866 511.954Q474.934 512 474.001 512L37.999 512Q37.0662 512 36.1345 511.954Q35.2028 511.908 34.2744 511.817Q33.3461 511.726 32.4234 511.589Q31.5007 511.452 30.5858 511.27Q29.6709 511.088 28.766 510.861Q27.8611 510.634 26.9685 510.364Q26.0758 510.093 25.1975 509.779Q24.3192 509.464 23.4574 509.107Q22.5956 508.75 21.7523 508.352Q20.9091 507.953 20.0864 507.513Q19.2637 507.073 18.4636 506.594Q17.6635 506.114 16.8879 505.596Q16.1123 505.078 15.363 504.522Q14.6138 503.966 13.8927 503.375Q13.1716 502.783 12.4804 502.156Q11.7893 501.53 11.1296 500.87Q10.47 500.211 9.8436 499.52Q9.21715 498.828 8.62538 498.107Q8.0336 497.386 7.47792 496.637Q6.92223 495.888 6.40399 495.112Q5.88574 494.336 5.40617 493.536Q4.9266 492.736 4.48687 491.914Q4.04714 491.091 3.64831 490.248Q3.24948 489.404 2.8925 488.543Q2.53553 487.681 2.22127 486.802Q1.90701 485.924 1.63622 485.031Q1.36544 484.139 1.13878 483.234Q0.912125 482.329 0.73014 481.414Q0.548155 480.499 0.411282 479.577Q0.274408 478.654 0.182976 477.726Q0.0915429 476.797 0.0457715 475.866Q0 474.934 0 474.001L0 37.999Q0 37.0662 0.0457715 36.1345Q0.0915429 35.2028 0.182976 34.2744Q0.274408 33.3461 0.411282 32.4234Q0.548155 31.5007 0.73014 30.5858Q0.912125 29.6709 1.13878 28.766Q1.36544 27.8611 1.63622 26.9685Q1.90701 26.0758 2.22127 25.1975Q2.53553 24.3192 2.8925 23.4574Q3.24948 22.5956 3.64831 21.7523Q4.04714 20.9091 4.48687 20.0864Q4.9266 19.2637 5.40617 18.4636Q5.88574 17.6635 6.40399 16.8879Q6.92223 16.1123 7.47792 15.363Q8.0336 14.6138 8.62538 13.8927Q9.21715 13.1716 9.8436 12.4804Q10.47 11.7893 11.1296 11.1296Q11.7893 10.47 12.4804 9.8436Q13.1716 9.21715 13.8927 8.62538Q14.6138 8.0336 15.363 7.47792Q16.1123 6.92223 16.8879 6.40399Q17.6635 5.88574 18.4636 5.40617Q19.2637 4.9266 20.0864 4.48687Q20.9091 4.04714 21.7523 3.64831Q22.5956 3.24948 23.4574 2.8925Q24.3192 2.53553 25.1975 2.22127Q26.0758 1.90701 26.9685 1.63622Q27.8611 1.36544 28.766 1.13878Q29.6709 0.912125 30.5858 0.73014Q31.5007 0.548155 32.4234 0.411282Q33.3461 0.274408 34.2744 0.182976Q35.2028 0.0915429 36.1345 0.0457715Q37.0662 0 37.999 0Z" id="path_2" />
    <clipPath id="clip_1">
      <use xlink:href="#path_1" />
    </clipPath>
    <clipPath id="clip_2">
      <use xlink:href="#path_2" />
    </clipPath>
  </defs>
  <g id="Icon 512" clip-path="url(#clip_1)">
    <path d="M0 0L512 0L512 512L0 512L0 0Z" id="Icon-512" fill="#FFFFFF" fill-opacity="0" fill-rule="evenodd" stroke="none" />
    <g id="矩形">
      <use stroke="none" fill="#000000" xlink:href="#path_2" fill-rule="evenodd" />
      <g clip-path="url(#clip_2)">
        <use xlink:href="#path_2" fill="none" stroke="#FFFFFF" stroke-width="18" />
      </g>
    </g>
    <path d="M279.521 128.305L279.521 90.5L301.809 90.5L301.809 128.305L394.597 128.305L394.597 150.593L203.911 150.593L203.911 128.305L279.521 128.305ZM131.101 422.887L131.101 105.902L153.389 105.902L153.389 422.887L131.101 422.887ZM160.505 237.279L160.505 160.51L182.793 160.51L182.793 237.279L160.505 237.279ZM237.516 181.512L237.516 160.51L259.804 160.51L259.804 181.512L321.527 181.512L321.527 160.51L343.815 160.51L343.815 181.512L411.713 181.512L411.713 203.8L191.309 203.8L191.309 181.512L237.516 181.512ZM101.697 258.282L101.697 181.512L123.985 181.512L123.985 258.282L101.697 258.282ZM208.112 248.606L208.112 226.318L378.986 226.318L378.986 248.606L378.82 248.606L378.82 264.124L378.986 264.124L378.986 286.411L378.82 286.411L378.82 299.128L378.986 299.128L378.986 321.416L208.112 321.416L208.112 248.606ZM230.4 248.606L230.4 264.124L356.532 264.124L356.532 248.606L230.4 248.606ZM356.532 286.411L230.4 286.411L230.4 299.128L356.532 299.128L356.532 286.411ZM289.323 373.433L289.323 331.333L311.61 331.333L311.61 373.433L289.323 373.433ZM240.316 395.742L240.316 335.533L262.604 335.533L262.604 395.742L334.129 395.742L334.129 374.739L356.417 374.739L356.417 395.742L356.709 395.742L356.709 418.03L240.316 418.03L240.316 395.742ZM185.708 405.522L185.708 341.134L207.996 341.134L207.996 405.522L185.708 405.522ZM378.935 406.922L378.935 342.534L401.223 342.534L401.223 406.922L378.935 406.922Z" id="矩形-9-相加" fill="#FFFFFF" fill-rule="evenodd" stroke="none" />
  </g>
</svg>